<?xml version="1.0"?>
<svg version="1.1" xmlns="http://www.w3.org/2000/svg" width="247" height="105" style=""><path fill="#fc6108" d="M17.501953125,37.283203125q0-0.65625,0.4716796875-1.0869140625t1.107421875-0.6767578125t1.39453125-0.328125t1.3330078125-0.08203125q1.189453125,0,2.5224609375,0.328125t1.9892578125,1.435546875q1.189453125,2.009765625,1.7431640625,4.7783203125t1.0458984375,5.3115234375q0.73828125,3.52734375,1.88671875,7.3828125t2.3994140625,7.8544921875t2.5634765625,7.8544921875t2.296875,7.21875q1.189453125-4.962890625,2.1943359375-10.171875t1.927734375-10.41796875t1.927734375-10.41796875t2.1943359375-10.212890625q0.24609375-1.189453125,0.369140625-2.994140625t0.5126953125-3.486328125t1.1279296875-2.8916015625t2.255859375-1.2099609375q1.599609375,0,2.1533203125,0.8818359375t0.5537109375,2.5634765625q-0.41015625,4.634765625-1.3330078125,9.1875t-1.7021484375,9.10546875q-1.107421875,5.619140625-2.3994140625,11.2587890625t-2.419921875,11.2998046875t-1.927734375,11.3408203125t-0.9638671875,11.3818359375q0.08203125,0.24609375,0.24609375,0.57421875t0.1640625,0.4921875q0,0.4921875-0.451171875,0.9228515625t-1.1279296875,0.73828125t-1.4765625,0.4716796875t-1.4970703125,0.1640625q-0.65625,0-1.4970703125-0.08203125t-1.681640625-0.3076171875t-1.4765625-0.5947265625t-0.7998046875-0.943359375q-0.65625-1.927734375-1.2099609375-3.7529296875t-1.0458984375-3.7529296875q-2.337890625-8.408203125-4.9013671875-16.5087890625t-4.7373046875-16.4677734375q-1.025390625-3.7734375-1.5380859375-7.4033203125t-1.6611328125-7.1572265625q0.1640625,0.328125,0.1640625,0.533203125q-0.1640625-0.57421875-0.328125-1.0869140625t-0.369140625-1.1279296875q0,0.1640625,0.041015625,0.205078125t0.041015625,0.123046875q0-0.08203125-0.041015625-0.123046875t-0.041015625-0.123046875z M61.86732421875,68.701171875q0-7.0546875,0.3896484375-13.9453125t0.9638671875-13.9453125q0.1640625-1.845703125,0.205078125-3.568359375t0.3896484375-3.0146484375t1.23046875-2.05078125t2.7275390625-0.7587890625q1.189453125,0,2.4814453125,0.41015625t1.2919921875,1.927734375q0,5.701171875-0.4716796875,11.2177734375t-0.6357421875,10.9716796875q4.470703125-5.044921875,9.556640625-9.4130859375t10.787109375-8.6337890625q0.8203125-0.57421875,2.091796875-0.615234375q0.41015625,0,0.7177734375,0.041015625t0.6357421875,0.123046875q0.41015625,0.1640625,0.8408203125,0.3896484375t0.4306640625,0.6357421875q0,0.328125-0.369140625,0.57421875q-4.265625,3.4453125-8.4287109375,7.013671875t-7.9365234375,7.62890625q0.4921875,0.943359375,0.8408203125,1.763671875t0.7587890625,1.763671875q3.4453125,8.162109375,5.8857421875,16.7138671875t5.1884765625,16.9599609375q0.24609375,0.943359375,0.7177734375,1.9482421875t0.8818359375,2.009765625t0.7177734375,1.88671875t0.3076171875,1.4560546875q0,0.73828125-0.4716796875,1.1689453125t-1.0869140625,0.6767578125t-1.3330078125,0.328125t-1.3330078125,0.08203125q-1.435546875,0-2.5634765625-0.41015625t-1.7841796875-1.845703125q-3.03515625-9.6796875-5.8447265625-19.359375t-5.6806640625-19.5234375q-0.943359375,0.943359375-1.88671875,2.3583984375t-1.72265625,2.6044921875q0,6.15234375,0.287109375,12.22265625t0.984375,12.22265625q0.1640625,1.763671875,0.5537109375,3.52734375t0.3896484375,3.609375q0,1.353515625-1.39453125,1.88671875t-3.076171875,0.533203125q-1.845703125,0-2.7685546875-0.369140625t-1.3125-0.9638671875t-0.4716796875-1.3125t-0.24609375-1.3740234375q-0.943359375-6.48046875-1.189453125-12.8173828125t-0.24609375-12.7353515625z M101.3928515625,36.134765625q0-0.57421875,0.7998046875-0.8818359375t1.0458984375-0.3076171875l1.517578125-0.24609375q1.517578125-0.24609375,3.076171875-0.4306640625t3.03515625-0.3486328125q5.208984375-0.65625,10.41796875-1.2919921875t10.5-0.6357421875q0.41015625,0,1.1279296875,0.041015625t1.435546875,0.2255859375t1.23046875,0.5126953125t0.5126953125,0.90234375q0,0.41015625-0.3896484375,0.7177734375t-0.9228515625,0.4716796875t-1.0869140625,0.205078125t-0.8818359375,0.041015625l-0.7177734375,0t-0.7177734375-0.1640625q-2.173828125,0-4.2861328125,0.205078125t-4.2861328125,0.369140625q0.57421875,0.65625,0.615234375,1.845703125t0.08203125,2.05078125q0,14.51953125,0.205078125,28.875t0.369140625,28.998046875l0,0.08203125q-1.353515625,1.189453125-2.3173828125,1.517578125t-1.9482421875,0.328125q-0.943359375,0-1.9072265625-0.3486328125t-2.3173828125-1.4970703125l0-0.08203125l0.328125-32.197265625q0-3.19921875-0.08203125-7.0546875t-0.08203125-7.8134765625t0.123046875-7.6494140625t0.65625-6.439453125q-2.419921875,0.24609375-5.126953125,0.73828125q-2.337890625,0.41015625-4.470703125,0.41015625l-0.73828125,0q-0.1640625,0-0.9638671875,0.041015625t-1.640625-0.041015625t-1.517578125-0.328125t-0.6767578125-0.8203125z M141.94376953125,80.8828125q0-2.87109375,0.6357421875-6.767578125t2.1533203125-7.3828125t3.9990234375-5.9267578125t6.2548828125-2.4404296875q3.52734375,0,5.291015625,2.0302734375t1.763671875,5.4755859375q0,2.255859375-0.8408203125,4.9423828125t-2.3994140625,5.0859375t-3.69140625,3.9990234375t-4.7578125,1.599609375l-1.06640625-0.08203125q0,1.107421875,0.328125,2.9736328125t0.9638671875,3.7119140625t1.640625,3.240234375t2.4404296875,1.39453125q2.091796875,0,4.01953125-1.681640625t3.650390625-3.732421875t3.19921875-3.732421875t2.70703125-1.681640625q0.65625,0,1.353515625,0.205078125t0.779296875,1.1484375q0,0.57421875-0.3076171875,0.943359375t-0.5537109375,0.8203125q-1.271484375,2.173828125-2.7685546875,4.142578125t-3.3837890625,3.568359375t-4.1220703125,2.5224609375t-4.9423828125,0.9228515625q-3.52734375,0-5.865234375-1.2509765625t-3.7734375-3.36328125t-2.0712890625-4.880859375t-0.6357421875-5.8037109375z M149.28556640625,77.765625l1.1484375,1.025390625q0.8203125,0.73828125,1.640625,0.328125t1.4765625-1.4970703125t1.2099609375-2.6865234375t0.984375-3.28125t0.6357421875-3.28125t0.205078125-2.666015625l0-1.39453125t-0.123046875-1.4765625t-0.4306640625-1.1689453125t-0.9638671875-0.5947265625q-0.205078125-0.041015625-0.369140625-0.041015625q-1.39453125,0-2.37890625,1.763671875q-1.06640625,1.96875-1.72265625,4.7783203125t-0.943359375,5.7626953125t-0.369140625,4.4296875z M176.219296875,78.380859375q0-2.953125,0.7587890625-5.9267578125t2.3583984375-5.33203125t4.0810546875-3.8349609375t5.8447265625-1.4765625q1.435546875,0,3.158203125,0.3486328125t3.1787109375,1.107421875t2.4609375,1.96875t1.0048828125,2.9736328125q0,1.107421875-0.57421875,1.4765625t-1.517578125,0.369140625l-0.287109375-0.41015625t-0.7998046875-1.0458984375t-1.0869140625-1.353515625t-1.107421875-1.2099609375q-1.681640625-1.681640625-3.158203125-1.8046875l-0.328125,0q-1.23046875,0-2.296875,0.73828125q-1.189453125,0.90234375-2.1123046875,2.54296875t-1.5380859375,3.486328125t-0.9638671875,3.732421875t-0.3486328125,3.1171875q0,1.681640625,0.3896484375,3.8349609375t1.3125,4.0810546875t2.337890625,3.240234375t3.6298828125,1.3125q2.009765625,0,3.650390625-0.984375t3.1376953125-2.1943359375t2.9326171875-2.173828125t2.953125-0.9638671875q0.65625,0,1.3330078125,0.1640625t0.6767578125,0.861328125l0,0.24609375q-0.73828125,1.927734375-2.501953125,3.404296875t-3.9580078125,2.5634765625t-4.552734375,1.6201171875t-4.2041015625,0.533203125q-3.4453125,0-6.0498046875-1.1279296875t-4.3271484375-3.0966796875t-2.6044921875-4.7373046875t-0.8818359375-6.0498046875z M212.01240234375,83.671875l0-3.85546875q0-2.091796875,0.1025390625-5.9267578125t0.2666015625-8.408203125t0.451171875-9.5361328125t0.65625-9.3720703125t0.8818359375-7.8955078125t1.1689453125-5.16796875q0.41015625-0.943359375,1.353515625-1.189453125t1.845703125-0.24609375q1.435546875,0,2.5224609375,0.6357421875t1.0869140625,2.3173828125l-0.73828125,0.8203125q-1.435546875,9.474609375-1.845703125,19.03125t-0.57421875,19.11328125q1.025390625-1.599609375,2.3173828125-3.1376953125t2.87109375-2.7275390625t3.404296875-1.9072265625t3.9990234375-0.7177734375q2.7890625,0,4.6142578125,1.681640625t3.0146484375,4.3681640625t1.763671875,6.0087890625t0.8818359375,6.64453125t0.4306640625,6.2958984375t0.369140625,4.9423828125q-0.779296875,1.06640625-2.296875,1.06640625l-0.123046875,0q-0.65625,0-1.435546875-0.1640625t-1.025390625-0.8203125l0.08203125,0.08203125q-0.57421875-1.271484375-0.779296875-3.6708984375t-0.328125-5.291015625t-0.4306640625-5.9267578125t-0.9228515625-5.49609375t-1.8046875-4.060546875t-3.19921875-1.681640625l-0.24609375,0q-2.419921875,0-4.060546875,1.4765625q-1.72265625,1.55859375-2.7890625,4.1015625t-1.640625,5.66015625t-0.8818359375,6.0087890625t-0.4716796875,5.25t-0.41015625,3.4658203125q-0.24609375,0.943359375-1.4560546875,1.2509765625t-2.0712890625,0.3076171875q-2.009765625,0-3.28125-1.1484375q-0.943359375-2.255859375-1.107421875-5.619140625t-0.1640625-6.5625z"/><path fill="#" d=""/></svg>
